<?xml version="1.0" encoding="utf-8"?>
<!-- Generator: Adobe Illustrator 17.1.0, SVG Export Plug-In . SVG Version: 6.00 Build 0)  -->
<!DOCTYPE svg PUBLIC "-//W3C//DTD SVG 1.1//EN" "http://www.w3.org/Graphics/SVG/1.1/DTD/svg11.dtd">
<svg version="1.1" id="Layer_1" xmlns="http://www.w3.org/2000/svg" xmlns:xlink="http://www.w3.org/1999/xlink" x="0px" y="0px"
	 viewBox="0 0 46 43" enable-background="new 0 0 46 43" xml:space="preserve">
<g id="send">
	<g>
		<path fill-rule="evenodd" clip-rule="evenodd" fill="#BF9474" d="M10.7,31.5c-0.6-0.6-2.1-0.7-2.7-0.1v11.2
			c0.6,0.6,2.1,0.5,2.7-0.1l4.8-3.8c0.6-0.6,0.6-1.5,0-2.1L10.7,31.5z M13.8,37.7l-2.5,2c-0.3,0.3-1,0.3-1.3,0v-5.7
			c0.3-0.3,1,0.4,1.3,0.6l2.5,2.6C14,37.6,14,37.5,13.8,37.7z M44.9,0c-0.2,0-0.3,0.1-0.5,0.1L1.2,12.9c-0.7,0.4-1.1,1.1-1.2,1.8
			l0,0l0,0c0,0.5,0,1,0.3,1.4l10.9,8.7L37.3,7.6L15.2,26.6c-0.9,0.9-0.9,2.4,0,3.3l10.1,11.4c0.9,0.9,2.4,0.9,3.3,0L45.6,1.9
			C45.9,1.7,46,1.5,46,1.1C46,0.5,45.5,0,44.9,0z M42.9,4.3l-15.2,34c-1.4,1.9-1,1.3-2.3,0.1l-7.2-8.1c-1.5-1.5-1.3-2-0.3-2.8
			L40.6,5.2L10.8,21.9l-7.5-5.6c-1.7-1.5-0.5-1.5,0.6-2.2L41.7,2.7C43.8,2.1,43.4,3.4,42.9,4.3z"/>
	</g>
</g>
</svg>
