<?xml version="1.0" encoding="utf-8"?>
<!-- Generator: Adobe Illustrator 17.1.0, SVG Export Plug-In . SVG Version: 6.00 Build 0)  -->
<!DOCTYPE svg PUBLIC "-//W3C//DTD SVG 1.1//EN" "http://www.w3.org/Graphics/SVG/1.1/DTD/svg11.dtd">
<svg version="1.1" id="Layer_1" xmlns="http://www.w3.org/2000/svg" xmlns:xlink="http://www.w3.org/1999/xlink" x="0px" y="0px"
	 viewBox="0 0 177.5 63.3" enable-background="new 0 0 177.5 63.3" xml:space="preserve">
<path fill="#1D384C" d="M171.8,51.4h-1.4v7.1c0,0.1,0,0.2,0,0.3c0,0.1,0,0.3,0.1,0.4c0.1,0.1,0.1,0.2,0.3,0.3
	c0.1,0.1,0.3,0.1,0.5,0.1c0.2,0,0.3,0,0.4-0.1c0.1-0.1,0.2-0.2,0.3-0.3c0.1-0.1,0.2-0.3,0.3-0.4c0.1-0.1,0.2-0.3,0.3-0.4l2.8-4.3
	c0,0,0.1-0.1,0.1-0.2c0.1-0.1,0.1-0.2,0.1-0.3c0,0,0-0.1,0-0.1c0,0,0,0,0,0v0.3v5.6h1.4v-7.2c0,0,0-0.1,0-0.2c0-0.1,0-0.2-0.1-0.3
	c0-0.1-0.1-0.2-0.3-0.3c-0.1-0.1-0.3-0.1-0.5-0.1c-0.2,0-0.3,0-0.4,0.1c-0.1,0.1-0.2,0.2-0.3,0.3c-0.1,0.1-0.2,0.3-0.3,0.4
	c-0.1,0.1-0.2,0.3-0.3,0.4l-2.8,4.3c0,0-0.1,0.1-0.1,0.2c-0.1,0.1-0.1,0.2-0.1,0.3c0,0,0,0,0,0c0,0,0,0,0,0v-0.3V51.4z M161.5,59.4
	h1.4v-3.6h3.7v3.6h1.4v-8h-1.4v2.9H163v-2.9h-1.4V59.4z M153.7,52.8L153.7,52.8c0.3,0,0.5,0,0.7,0.1c0.2,0.1,0.4,0.2,0.6,0.3
	c0.2,0.1,0.3,0.3,0.5,0.5c0.1,0.2,0.2,0.3,0.3,0.5c0.1,0.2,0.1,0.4,0.2,0.6c0,0.2,0.1,0.4,0.1,0.6c0,0.2,0,0.4-0.1,0.6
	c0,0.2-0.1,0.4-0.2,0.6c0,0.1-0.1,0.2-0.2,0.4c-0.1,0.2-0.2,0.3-0.4,0.4c-0.2,0.1-0.4,0.3-0.6,0.4c-0.2,0.1-0.5,0.2-0.9,0.2v1.4h0.1
	c0.6,0,1.2-0.2,1.7-0.5c0.5-0.3,0.9-0.8,1.2-1.4c0.3,0.6,0.7,1,1.2,1.4c0.5,0.3,1.1,0.5,1.7,0.5h0.1V58h-0.1c-0.2,0-0.4,0-0.7-0.1
	c-0.2-0.1-0.4-0.2-0.6-0.3c-0.2-0.1-0.3-0.3-0.5-0.4c-0.1-0.2-0.2-0.3-0.3-0.5c-0.1-0.2-0.1-0.4-0.2-0.6c0-0.2-0.1-0.4-0.1-0.6
	c0-0.2,0-0.4,0.1-0.6c0-0.2,0.1-0.4,0.2-0.6c0.1-0.2,0.2-0.3,0.3-0.5c0.1-0.2,0.3-0.3,0.5-0.5c0.2-0.1,0.4-0.2,0.6-0.3
	c0.2-0.1,0.4-0.1,0.7-0.1h0.1v-1.4h-0.1c-0.6,0-1.2,0.2-1.7,0.5c-0.5,0.3-0.9,0.8-1.2,1.4c-0.3-0.6-0.7-1-1.2-1.4
	c-0.5-0.3-1.1-0.5-1.7-0.5h-0.1V52.8z M145.2,51.4v4.3c0,0.3,0,0.7,0,1.1c0,0.4,0.1,0.7,0.2,1.1c0.1,0.3,0.3,0.6,0.5,0.9
	c0.2,0.3,0.6,0.5,1,0.6c0.2,0.1,0.4,0.1,0.6,0.1c0.2,0,0.4,0,0.6,0c0.2,0,0.3,0,0.5,0c0.2,0,0.3,0,0.5-0.1c0.4-0.1,0.7-0.2,0.9-0.4
	c0.2-0.2,0.4-0.4,0.5-0.6v0.9c0,0.2,0,0.3,0,0.5c0,0.2,0,0.3,0,0.5c0,0.2-0.1,0.3-0.2,0.5c-0.1,0.2-0.2,0.3-0.3,0.4
	c-0.1,0.1-0.3,0.2-0.4,0.3c-0.2,0.1-0.3,0.1-0.5,0.2c-0.2,0-0.4,0.1-0.5,0.1c-0.2,0-0.4,0-0.5,0c-0.4,0-0.8-0.1-1.2-0.2
	c-0.4-0.1-0.8-0.3-1.2-0.5l-0.1,1.5c0.4,0.2,0.8,0.3,1.3,0.4c0.5,0.1,1,0.2,1.5,0.2c0.5,0,0.9-0.1,1.4-0.2c0.5-0.1,0.9-0.4,1.2-0.6
	c0.2-0.2,0.4-0.4,0.6-0.7c0.2-0.2,0.3-0.5,0.3-0.7c0.1-0.3,0.1-0.5,0.1-0.8c0-0.3,0-0.6,0-0.8v-7.9h-1.4v4c0,0.2,0,0.3,0,0.5
	c0,0.2,0,0.4-0.1,0.6c-0.1,0.2-0.1,0.4-0.3,0.6c-0.1,0.2-0.3,0.4-0.5,0.6c-0.3,0.3-0.7,0.4-1.1,0.4c-0.2,0-0.4,0-0.5,0
	c-0.2,0-0.3-0.1-0.5-0.2c-0.2-0.1-0.4-0.3-0.5-0.5c-0.1-0.2-0.2-0.4-0.2-0.6c0-0.2-0.1-0.4-0.1-0.7c0-0.2,0-0.5,0-0.7v-4H145.2z
	 M136.8,51.4v8h1.4V56h1.5c0.4,0,0.7,0.1,0.9,0.2c0.2,0.1,0.4,0.3,0.5,0.5c0.1,0.2,0.2,0.5,0.2,0.7c0,0.3,0,0.5,0,0.7v1.2h1.4v-1.2
	c0-0.4,0-0.8-0.1-1.2c0-0.4-0.2-0.7-0.4-1.1c-0.2-0.2-0.4-0.4-0.6-0.6c-0.3-0.2-0.6-0.3-0.9-0.3c0.4-0.3,0.7-0.6,0.8-0.9
	c0.2-0.3,0.4-0.7,0.5-1.1l0.8-1.6h-1.5l-0.8,1.5c-0.1,0.3-0.3,0.5-0.4,0.7c-0.1,0.2-0.2,0.4-0.4,0.5c-0.1,0.1-0.3,0.2-0.4,0.3
	c-0.1,0.1-0.3,0.1-0.5,0.1h-0.9v-3.2H136.8z M127.6,57.3c-0.3,0.3-0.6,0.5-0.9,0.7c-0.3,0.2-0.7,0.2-1.1,0.2c-0.3,0-0.6,0-0.9-0.2
	c-0.3-0.1-0.6-0.3-0.9-0.5c-0.3-0.2-0.5-0.5-0.7-0.8c-0.2-0.4-0.3-0.8-0.3-1.3c0-0.4,0.1-0.8,0.2-1.2c0.1-0.3,0.3-0.6,0.6-0.9
	c0.2-0.2,0.5-0.4,0.8-0.5s0.7-0.2,1-0.2c0.3,0,0.6,0,0.9,0.1c0.3,0.1,0.6,0.2,0.9,0.5c0.3,0.2,0.5,0.6,0.7,1c0.2,0.4,0.3,1,0.3,1.6
	v3.6h1.4v-3.5c0-0.8-0.1-1.5-0.3-2.1c-0.2-0.6-0.5-1.1-0.9-1.4c-0.4-0.4-0.8-0.6-1.3-0.8c-0.5-0.2-1-0.3-1.5-0.3
	c-0.6,0-1.1,0.1-1.6,0.3c-0.5,0.2-0.9,0.5-1.3,0.9c-0.4,0.4-0.7,0.8-0.9,1.4c-0.2,0.5-0.3,1.1-0.3,1.8c0,0.6,0.1,1.2,0.3,1.7
	c0.2,0.5,0.5,0.9,0.8,1.3c0.4,0.4,0.8,0.6,1.2,0.8c0.5,0.2,1,0.3,1.5,0.3c0.5,0,0.9-0.1,1.2-0.2c0.4-0.1,0.7-0.3,1-0.6V57.3z
	 M115,57.4v-6h-1.4v6H115z M109.2,51.4v4.9c0,0.3,0,0.5,0,0.8c0,0.2,0.1,0.5,0.1,0.7c0.1,0.2,0.2,0.4,0.3,0.7
	c0.2,0.2,0.4,0.4,0.6,0.6c0.3,0.2,0.7,0.4,1.1,0.4c0.4,0,0.8,0.1,1.2,0.1h6.7v-8h-1.4V58h-5.5c-0.2,0-0.4,0-0.6,0
	c-0.2,0-0.4-0.1-0.6-0.2c-0.1-0.1-0.2-0.2-0.3-0.3s-0.1-0.3-0.2-0.4c0-0.1-0.1-0.3-0.1-0.4c0-0.1,0-0.3,0-0.4v-4.7H109.2z
	 M100.2,51.4v4.3c0,0.3,0,0.7,0,1.1s0.1,0.7,0.2,1.1c0.1,0.3,0.3,0.6,0.5,0.9c0.2,0.3,0.6,0.5,1,0.6c0.2,0.1,0.4,0.1,0.6,0.1
	c0.2,0,0.4,0,0.6,0c0.2,0,0.3,0,0.5,0c0.2,0,0.3,0,0.5-0.1c0.4-0.1,0.7-0.2,0.9-0.4c0.2-0.2,0.4-0.4,0.5-0.6v0.9c0,0.2,0,0.3,0,0.5
	c0,0.2,0,0.3,0,0.5c0,0.2-0.1,0.3-0.2,0.5c-0.1,0.2-0.2,0.3-0.3,0.4c-0.1,0.1-0.3,0.2-0.4,0.3c-0.2,0.1-0.3,0.1-0.5,0.2
	c-0.2,0-0.4,0.1-0.5,0.1c-0.2,0-0.4,0-0.5,0c-0.4,0-0.8-0.1-1.2-0.2c-0.4-0.1-0.8-0.3-1.2-0.5l-0.1,1.5c0.4,0.2,0.8,0.3,1.3,0.4
	s1,0.2,1.5,0.2c0.5,0,0.9-0.1,1.4-0.2c0.5-0.1,0.9-0.4,1.2-0.6c0.2-0.2,0.4-0.4,0.6-0.7c0.2-0.2,0.3-0.5,0.3-0.7
	c0.1-0.3,0.1-0.5,0.1-0.8c0-0.3,0-0.6,0-0.8v-7.9h-1.4v4c0,0.2,0,0.3,0,0.5c0,0.2,0,0.4-0.1,0.6c-0.1,0.2-0.1,0.4-0.3,0.6
	c-0.1,0.2-0.3,0.4-0.5,0.6c-0.3,0.3-0.7,0.4-1.1,0.4c-0.2,0-0.4,0-0.5,0c-0.2,0-0.3-0.1-0.5-0.2c-0.2-0.1-0.4-0.3-0.5-0.5
	c-0.1-0.2-0.2-0.4-0.2-0.6c0-0.2-0.1-0.4-0.1-0.7c0-0.2,0-0.5,0-0.7v-4H100.2z M95.9,57.3c-0.3,0.3-0.6,0.5-1,0.7
	c-0.4,0.1-0.8,0.2-1.2,0.2c-0.4,0-0.7-0.1-1-0.2c-0.3-0.1-0.6-0.3-0.8-0.6c-0.2-0.2-0.4-0.5-0.5-0.9c-0.1-0.3-0.2-0.7-0.2-1.1
	c0-0.4,0.1-0.8,0.2-1.2c0.1-0.3,0.3-0.6,0.6-0.9c0.2-0.3,0.5-0.4,0.9-0.6c0.3-0.1,0.7-0.2,1.1-0.2c0.4,0,0.8,0.1,1.1,0.2
	c0.4,0.2,0.7,0.4,0.9,0.7c0.2,0.3,0.4,0.6,0.4,0.9c0.1,0.3,0.1,0.6,0.2,0.9c0,0.3,0,0.6,0,0.8V59c0,0.5-0.1,1-0.2,1.4
	c-0.1,0.4-0.3,0.7-0.6,0.9c-0.2,0.2-0.5,0.4-0.9,0.5c-0.3,0.1-0.7,0.1-1.1,0.1c-0.3,0-0.7,0-1-0.1c-0.3-0.1-0.7-0.2-1.1-0.3
	l-0.3,1.3c0.6,0.2,1.1,0.3,1.5,0.4c0.4,0.1,0.8,0.1,1,0.1c0.4,0,0.7,0,1-0.1c0.3-0.1,0.6-0.2,0.8-0.3c0.2-0.1,0.4-0.2,0.6-0.3
	c0.2-0.1,0.3-0.3,0.5-0.4c0.2-0.2,0.4-0.5,0.6-0.8c0.2-0.3,0.3-0.6,0.3-0.9c0.1-0.3,0.1-0.6,0.2-0.9c0-0.3,0-0.6,0-0.9v-2.4
	c0-0.8-0.1-1.4-0.2-2c-0.1-0.5-0.3-1-0.6-1.4c-0.2-0.4-0.5-0.7-0.8-0.9c-0.3-0.2-0.6-0.4-0.9-0.5c-0.3-0.1-0.6-0.2-0.9-0.2
	c-0.3,0-0.5,0-0.7,0c-0.5,0-1.1,0.1-1.6,0.3c-0.5,0.2-0.9,0.5-1.3,0.9c-0.4,0.4-0.7,0.8-0.9,1.3c-0.2,0.5-0.3,1.1-0.3,1.7
	c0,0.7,0.1,1.4,0.4,1.9c0.3,0.5,0.6,0.9,1,1.3c0.4,0.3,0.8,0.6,1.3,0.7c0.5,0.2,0.9,0.2,1.4,0.2c0.4,0,0.8-0.1,1.1-0.2
	c0.3-0.1,0.7-0.3,1-0.6V57.3z M76.6,59.4h1.4v-1.3c0-0.2,0-0.5,0.1-0.7c0-0.3,0.2-0.5,0.5-0.6c0.1-0.1,0.3-0.2,0.5-0.2
	c0.2,0,0.4-0.1,0.8-0.1h1v-1.3h-1.1c-0.2,0-0.3,0-0.5,0c-0.2,0-0.4-0.1-0.6-0.2c-0.2-0.1-0.4-0.2-0.5-0.4c-0.1-0.2-0.2-0.4-0.2-0.7
	c0-0.2,0-0.3,0.1-0.5c0.1-0.2,0.2-0.4,0.5-0.5c0.2-0.1,0.3-0.2,0.5-0.2c0.2,0,0.3,0,0.5,0c0.2,0,0.3,0,0.5,0c0.2,0,0.3,0.1,0.5,0.1
	c0.3,0.1,0.5,0.3,0.6,0.5c0.1,0.2,0.2,0.4,0.3,0.7c0.1,0.2,0.1,0.5,0.1,0.8c0,0.3,0,0.5,0,0.8v3.9h1.4v-4.3c0-0.3,0-0.5,0-0.8
	c0-0.3-0.1-0.5-0.1-0.8c-0.1-0.3-0.2-0.5-0.3-0.8c-0.1-0.2-0.3-0.5-0.6-0.7c-0.2-0.2-0.6-0.4-1-0.6c-0.4-0.2-0.9-0.2-1.4-0.2
	c-0.5,0-1,0.1-1.4,0.3c-0.3,0.1-0.6,0.3-0.8,0.5c-0.2,0.2-0.4,0.4-0.5,0.6c-0.1,0.2-0.2,0.4-0.3,0.7c-0.1,0.2-0.1,0.4-0.1,0.6
	c0,0.4,0.1,0.8,0.4,1.2c0.2,0.4,0.6,0.6,1.1,0.7c-0.2,0.1-0.4,0.2-0.5,0.3c-0.2,0.1-0.3,0.3-0.4,0.4c-0.2,0.3-0.3,0.6-0.3,0.9
	c0,0.3,0,0.6,0,0.9V59.4z M72.2,57.3c-0.3,0.3-0.6,0.5-0.9,0.7c-0.3,0.2-0.7,0.2-1.1,0.2c-0.3,0-0.6,0-0.9-0.2
	c-0.3-0.1-0.6-0.3-0.9-0.5c-0.3-0.2-0.5-0.5-0.7-0.8c-0.2-0.4-0.3-0.8-0.3-1.3c0-0.4,0.1-0.8,0.2-1.2c0.1-0.3,0.3-0.6,0.6-0.9
	c0.2-0.2,0.5-0.4,0.8-0.5c0.3-0.1,0.7-0.2,1-0.2c0.3,0,0.6,0,0.9,0.1c0.3,0.1,0.6,0.2,0.9,0.5c0.3,0.2,0.5,0.6,0.7,1
	c0.2,0.4,0.3,1,0.3,1.6v3.6h1.4v-3.5c0-0.8-0.1-1.5-0.3-2.1c-0.2-0.6-0.5-1.1-0.9-1.4c-0.4-0.4-0.8-0.6-1.3-0.8
	c-0.5-0.2-1-0.3-1.5-0.3c-0.6,0-1.1,0.1-1.6,0.3c-0.5,0.2-0.9,0.5-1.3,0.9c-0.4,0.4-0.7,0.8-0.9,1.4c-0.2,0.5-0.3,1.1-0.3,1.8
	c0,0.6,0.1,1.2,0.3,1.7c0.2,0.5,0.5,0.9,0.8,1.3c0.4,0.4,0.8,0.6,1.2,0.8c0.5,0.2,1,0.3,1.5,0.3c0.5,0,0.9-0.1,1.2-0.2
	c0.4-0.1,0.7-0.3,1-0.6V57.3z M57.4,59.4h1.4v-3.6h3.7v3.6h1.4v-8h-1.4v2.9h-3.7v-2.9h-1.4V59.4z M48.5,59.4h1.4v-3.6h3.7v3.6h1.4
	v-8h-1.4v2.9h-3.7v-2.9h-1.4V59.4z M40.9,51.4h-1.4v7.1c0,0.1,0,0.2,0,0.3s0,0.3,0.1,0.4c0.1,0.1,0.1,0.2,0.3,0.3
	c0.1,0.1,0.3,0.1,0.5,0.1c0.2,0,0.3,0,0.4-0.1c0.1-0.1,0.2-0.2,0.3-0.3c0.1-0.1,0.2-0.3,0.3-0.4c0.1-0.1,0.2-0.3,0.3-0.4l2.8-4.3
	c0,0,0.1-0.1,0.1-0.2c0.1-0.1,0.1-0.2,0.1-0.3c0,0,0-0.1,0-0.1c0,0,0,0,0,0v0.3v5.6h1.4v-7.2c0,0,0-0.1,0-0.2c0-0.1,0-0.2-0.1-0.3
	c0-0.1-0.1-0.2-0.3-0.3c-0.1-0.1-0.3-0.1-0.5-0.1c-0.2,0-0.3,0-0.4,0.1c-0.1,0.1-0.2,0.2-0.3,0.3c-0.1,0.1-0.2,0.3-0.3,0.4
	c-0.1,0.1-0.2,0.3-0.3,0.4l-2.8,4.3c0,0-0.1,0.1-0.1,0.2c-0.1,0.1-0.1,0.2-0.1,0.3c0,0,0,0,0,0c0,0,0,0,0,0v-0.3V51.4z M31.5,51.4
	v1.4h2.4v6.6h1.4v-6.6h2.4v-1.4H31.5z M30.1,51.4h-1c-0.4,0-0.8,0-1.2,0.1c-0.5,0.1-0.9,0.3-1.4,0.6c-0.3,0.2-0.6,0.5-0.8,0.7
	c-0.2,0.3-0.4,0.5-0.5,0.8C25.1,54,25,54.3,25,54.6c-0.1,0.3-0.1,0.6-0.1,0.8c0,0.5,0.1,1,0.3,1.4c0.2,0.5,0.4,0.9,0.8,1.3
	c0.4,0.4,0.8,0.7,1.3,0.9c0.5,0.2,1.1,0.4,1.9,0.4h1V58h-1c-0.5,0-0.9-0.1-1.2-0.2c-0.4-0.1-0.6-0.3-0.9-0.6
	c-0.2-0.2-0.4-0.5-0.5-0.8c-0.1-0.3-0.2-0.6-0.2-1c0-0.3,0-0.6,0.1-0.9c0.1-0.3,0.2-0.6,0.5-0.8c0.2-0.3,0.5-0.5,0.8-0.6
	c0.4-0.2,0.8-0.3,1.3-0.3h1V51.4z M14.3,47.8v10c0,0.2,0,0.5,0,0.7c0,0.2,0.1,0.4,0.2,0.6c0.1,0.2,0.2,0.3,0.3,0.4
	c0.1,0.1,0.3,0.1,0.6,0.1c0.2,0,0.4,0,0.5-0.1c0.2-0.1,0.3-0.2,0.4-0.3c0.1-0.1,0.2-0.3,0.3-0.5c0.1-0.2,0.2-0.4,0.3-0.6l3.3-7.2
	c0,0,0.1-0.1,0.1-0.2c0-0.1,0.1-0.2,0.1-0.3c0-0.1,0.1-0.2,0.1-0.2c0-0.1,0.1-0.1,0.1-0.1c0.1,0,0.1,0,0.1,0.1c0,0.1,0,0.1,0,0.2
	v9.1h1.5v-10c0-0.2,0-0.5,0-0.7c0-0.2-0.1-0.4-0.2-0.6c-0.1-0.2-0.2-0.3-0.3-0.4c-0.2-0.1-0.3-0.1-0.6-0.1c-0.4,0-0.7,0.1-0.9,0.4
	c-0.2,0.2-0.5,0.6-0.7,1.2l-3.3,7.2c-0.1,0.3-0.2,0.5-0.3,0.6c-0.1,0.2-0.1,0.2-0.2,0.2c-0.1,0-0.1,0-0.1-0.1c0-0.1,0-0.1,0-0.2
	l0-9.1H14.3z"/>
<path fill="#BD8669" d="M18.5,0v29.9h4.1c7.3,0,13.1-6.5,12.3-14C34.2,8.3,27.3,3.1,20.1,4.6V0.2c9.5-1.5,18.3,5.8,19,15.7
	c0.7,9.9-6.9,18.4-16.6,18.4h-8.3V21.7v0c0-3.1-2-6.3-4.7-8.3c-2.8-2-6.4-2.6-9.6-2.5c4.6-2.9,10.2-2.4,14.3,1.2V0H18.5v5.1V0z"/>
<g>
	<path fill="#BD8669" d="M42.1,44.9V23.3c0-11.4,7.1-14.3,12.6-14.3c6.7,0,12.8,5.1,12.8,13.1c0,7.9-6.2,12.4-12.4,12.4
		c-2.4,0-4.9-0.8-6.7-2.3v-4.7c2.2,2.1,4.2,2.7,6.2,2.7c5.1,0,8.5-3.4,8.5-8.2c0-5.2-3.7-8.7-8.2-8.7c-3.6,0-8.2,1.8-8.2,10.4v21.3
		H42.1z"/>
	<path fill="#BD8669" d="M116,32c-1.9,1.5-4.2,2.3-7,2.3c-6.8,0-12.2-4.8-12.2-12.4c0-7.9,5.9-13.1,12.9-13.1
		c6.3,0,12.5,3.9,12.5,14.1v10.8h-4.4V22.9c0-8.2-4.9-9.7-8.2-9.7c-4.5,0-8.2,3.2-8.2,8.5c0,6.2,4.8,8.4,8.3,8.4
		c2.5,0,4.5-1,6.3-2.7V32z"/>
	<path fill="#BD8669" d="M171.3,32c-1.9,1.5-4.2,2.3-7,2.3c-6.8,0-12.2-4.8-12.2-12.4c0-7.9,5.9-13.1,12.9-13.1
		c6.3,0,12.5,3.9,12.5,14.1v10.8h-4.4V22.9c0-8.2-4.9-9.7-8.2-9.7c-4.5,0-8.2,3.2-8.2,8.5c0,6.2,4.8,8.4,8.3,8.4
		c2.5,0,4.5-1,6.3-2.7V32z"/>
</g>
<path fill="#BD8669" d="M145.1,44.9V23.6c0-8.6-4.7-10.4-8.2-10.4c-4.5,0-8.2,3.5-8.2,8.7c0,4.8,3.4,8.2,8.5,8.2c2,0,4-0.7,6.2-2.7
	V32c-1.8,1.6-4.4,2.3-6.7,2.3c-6.3,0-12.4-4.5-12.4-12.3c0-8,6.1-13,12.8-13c5.5,0,12.6,2.9,12.6,14.3v21.6H145.1z"/>
<path fill="#BD8669" d="M74.1,8.9c0,0,0,8.4,0,13.5c0,4.6,3.4,7.9,8.5,7.9c2,0,4-0.6,6.2-2.6v4.5c-1.8,1.5-4.4,2.2-6.7,2.2
	c-6.3,0-12.4-4.3-12.4-11.9c0-7.7,0-13.6,0-13.6"/>
<rect x="90.1" y="8.9" fill="#BD8669" width="4.3" height="25.4"/>
</svg>
