<?xml version="1.0" encoding="utf-8"?>
<!-- Generator: Adobe Illustrator 17.1.0, SVG Export Plug-In . SVG Version: 6.00 Build 0)  -->
<!DOCTYPE svg PUBLIC "-//W3C//DTD SVG 1.1//EN" "http://www.w3.org/Graphics/SVG/1.1/DTD/svg11.dtd">
<svg x="0px" y="0px"
	 viewBox="0 0 20 20" enable-background="new 0 0 20 20" xml:space="preserve">
<path fill="#BD8669" d="M16,20c-1.8,0-3.7-0.5-5.6-1.5c-1.8-0.9-3.6-2.2-5.1-3.8s-2.9-3.3-3.8-5.1C0.5,7.7,0,5.8,0,4
	c0-1.1,1.1-2.3,1.5-2.7C2.2,0.7,3.2,0,4,0c0.4,0,0.8,0.2,1.4,0.8c0.4,0.4,0.9,0.9,1.4,1.5C7,2.7,8.5,4.6,8.5,5.5
	c0,0.7-0.8,1.3-1.7,1.8C6.4,7.5,6,7.7,5.8,8C5.5,8.2,5.5,8.3,5.5,8.3c0.9,2.4,3.8,5.3,6.2,6.2c0,0,0.1-0.1,0.4-0.3
	c0.2-0.3,0.4-0.6,0.6-1c0.6-0.9,1.1-1.7,1.8-1.7c0.9,0,2.8,1.4,3.2,1.7c0.6,0.5,1.1,1,1.5,1.4c0.5,0.6,0.8,1,0.8,1.4
	c0,0.8-0.7,1.8-1.3,2.5C18.2,18.9,17.1,20,16,20L16,20z M4,1C3.7,1,3,1.3,2.2,2.1C1.5,2.7,1,3.5,1,4c0,6.7,8.3,15,15,15
	c0.5,0,1.3-0.5,1.9-1.2C18.7,17,19,16.3,19,16c0-0.2-0.6-0.9-2-2c-1.2-1-2.2-1.5-2.5-1.5c0,0-0.1,0-0.4,0.3
	c-0.2,0.3-0.4,0.6-0.6,0.9c-0.6,0.9-1.1,1.8-1.9,1.8c-0.1,0-0.2,0-0.4-0.1c-2.6-1.1-5.7-4.2-6.8-6.8C4.4,8.4,4.4,7.9,5,7.3
	C5.3,7,5.8,6.7,6.2,6.5C6.6,6.3,6.9,6,7.2,5.8c0.3-0.2,0.3-0.3,0.3-0.4C7.5,5.2,7,4.2,6,3C4.9,1.6,4.2,1,4,1L4,1z"/>
</svg>
