<?xml version="1.0" encoding="utf-8"?>
<!-- Generator: Adobe Illustrator 17.1.0, SVG Export Plug-In . SVG Version: 6.00 Build 0)  -->
<!DOCTYPE svg PUBLIC "-//W3C//DTD SVG 1.1//EN" "http://www.w3.org/Graphics/SVG/1.1/DTD/svg11.dtd">
<svg version="1.1" id="Layer_1" xmlns="http://www.w3.org/2000/svg" xmlns:xlink="http://www.w3.org/1999/xlink" x="0px" y="0px"
	 viewBox="0 0 266.9 394" enable-background="new 0 0 266.9 394" xml:space="preserve">
<g>
	<g>
		<defs>
			<rect id="SVGID_1_" x="0" y="0.1" width="266.9" height="393.9"/>
		</defs>
		<clipPath id="SVGID_2_">
			<use xlink:href="#SVGID_1_"  overflow="visible"/>
		</clipPath>
		<path clip-path="url(#SVGID_2_)" d="M133.4,0C38.1,0-16,82.1,4.2,169.5C18.5,231.6,105.2,394,133.4,394
			c26.3,0,114.6-162.4,129.2-224.5C282.8,83,229.2,0,133.4,0L133.4,0z M133.4,180c-27.5,0-49.8-22.3-49.8-49.8
			c0-27.5,22.3-49.8,49.8-49.8c27.5,0,49.8,22.3,49.8,49.8C183.2,157.7,160.9,180,133.4,180L133.4,180z M133.4,180"/>
	</g>
</g>
<circle cx="133" cy="130.1" r="40.7"/>
</svg>
