<?xml version="1.0" encoding="utf-8"?>
<!-- Generator: Adobe Illustrator 17.1.0, SVG Export Plug-In . SVG Version: 6.00 Build 0)  -->
<!DOCTYPE svg PUBLIC "-//W3C//DTD SVG 1.1//EN" "http://www.w3.org/Graphics/SVG/1.1/DTD/svg11.dtd">
<svg version="1.1" id="Layer_1" xmlns="http://www.w3.org/2000/svg" xmlns:xlink="http://www.w3.org/1999/xlink" x="0px" y="0px"
	 viewBox="0 0 34 48" enable-background="new 0 0 34 48" xml:space="preserve">
<g id="pin">
	<g>
		<path fill-rule="evenodd" clip-rule="evenodd" fill="#BD8669" d="M17,0C8.2,0,0,7.2,0,16c0,14,12,32,17,32c5.9,0,17-19,17-32
			C34,7.2,25.8,0,17,0z M17,46c-1,0-4.6-2.9-8.6-9.8C4.4,29.4,2,21.8,2,16C2,8.5,9,2,17,2s15,6.5,15,14c0,5.6-2.3,13-6,19.9
			C21.9,43.3,18.3,46,17,46z M17,10c-3.3,0-6,2.7-6,6c0,3.3,2.7,6,6,6c3.3,0,6-2.7,6-6C23,12.7,20.3,10,17,10z M17,20
			c-2.2,0-4-1.8-4-4c0-2.2,1.8-4,4-4s4,1.8,4,4C21,18.2,19.2,20,17,20z"/>
	</g>
</g>
</svg>
