<?xml version="1.0" encoding="utf-8"?>
<!-- Generator: Adobe Illustrator 17.1.0, SVG Export Plug-In . SVG Version: 6.00 Build 0)  -->
<!DOCTYPE svg PUBLIC "-//W3C//DTD SVG 1.1//EN" "http://www.w3.org/Graphics/SVG/1.1/DTD/svg11.dtd">
<svg version="1.1" id="Layer_1" xmlns="http://www.w3.org/2000/svg" xmlns:xlink="http://www.w3.org/1999/xlink" x="0px" y="0px"
	 viewBox="0 0 533.9 351.4" enable-background="new 0 0 533.9 351.4" xml:space="preserve">
<g>
	<path fill="#010101" d="M176.4,0v27.9c-40,20.9-68.6,42.7-85.8,65.4s-25.9,47.4-25.9,74.2c0,15.9,2.3,26.8,6.8,32.7
		c4.1,6.4,9.1,9.5,15,9.5s13.8-1.7,23.8-5.1s19.1-5.1,27.2-5.1c18.6,0,34.8,6.9,48.7,20.8c13.8,13.8,20.8,30.8,20.8,50.7
		c0,21.8-8.4,40.5-25.2,56.2s-37.7,23.5-62.7,23.5c-30.4,0-57.9-13.2-82.4-39.5C12.3,284.9,0,252.4,0,213.8
		c0-45.4,15.1-87.7,45.3-127S119.2,18.6,176.4,0z M501.2,2v25.9c-45.9,26.3-76,49.9-90.6,70.8s-21.8,45.4-21.8,73.5
		c0,12.7,2.5,22.2,7.5,28.6s10.2,9.5,15.7,9.5c5,0,12.5-1.8,22.5-5.4c10-3.6,20-5.4,30-5.4c18.6,0,34.8,6.7,48.7,20.1
		c13.8,13.4,20.8,29.8,20.8,49.4c0,22.2-8.7,41.5-26.2,57.9c-17.5,16.3-38.9,24.5-64.4,24.5c-30,0-57-12.9-81-38.8
		c-24.1-25.9-36.1-58.1-36.1-96.7c0-47.7,15.2-91.1,45.6-130.4S445.4,18.4,501.2,2z"/>
</g>
</svg>
