<?xml version="1.0" encoding="utf-8"?>
<!-- Generator: Adobe Illustrator 17.1.0, SVG Export Plug-In . SVG Version: 6.00 Build 0)  -->
<!DOCTYPE svg PUBLIC "-//W3C//DTD SVG 1.1//EN" "http://www.w3.org/Graphics/SVG/1.1/DTD/svg11.dtd">
<svg version="1.1" id="Layer_1" xmlns="http://www.w3.org/2000/svg" xmlns:xlink="http://www.w3.org/1999/xlink" x="0px" y="0px"
	 viewBox="0 0 20 17" enable-background="new 0 0 20 17" xml:space="preserve">
<path fill="#FFFFFF" d="M17.5,2.5c-1.6-1.6-3.7-2.5-6-2.5s-4.4,0.9-6,2.5S3,6.2,3,8.5v1.3L0.9,7.6c-0.2-0.2-0.5-0.2-0.7,0
	S0,8.2,0.1,8.4l3,3c0.1,0.1,0.2,0.1,0.4,0.1s0.3,0,0.4-0.1l3-3C7,8.2,7,7.8,6.9,7.6s-0.5-0.2-0.7,0L4,9.8V8.5C4,4.4,7.4,1,11.5,1
	S19,4.4,19,8.5S15.6,16,11.5,16c-0.3,0-0.5,0.2-0.5,0.5s0.2,0.5,0.5,0.5c2.3,0,4.4-0.9,6-2.5s2.5-3.7,2.5-6S19.1,4.1,17.5,2.5
	L17.5,2.5z"/>
</svg>
