<?xml version="1.0" encoding="utf-8"?>
<!-- Generator: Adobe Illustrator 17.1.0, SVG Export Plug-In . SVG Version: 6.00 Build 0)  -->
<!DOCTYPE svg PUBLIC "-//W3C//DTD SVG 1.1//EN" "http://www.w3.org/Graphics/SVG/1.1/DTD/svg11.dtd">
<svg version="1.1" id="Layer_1" xmlns="http://www.w3.org/2000/svg" xmlns:xlink="http://www.w3.org/1999/xlink" x="0px" y="0px"
	 viewBox="0 0 44 48" enable-background="new 0 0 44 48" xml:space="preserve">
<g id="user">
	<g>
		<path fill-rule="evenodd" clip-rule="evenodd" fill="#BD8669" d="M28.5,28.7c3.9-4,6.5-10.9,6.5-15.7c0-7.2-5.8-13-13-13
			S9,5.8,9,13c0,4.8,2.6,11.6,6.5,15.7C5.9,30.6,0,37.1,0,48h44C44,37.1,38.1,30.6,28.5,28.7z M11,13c0-6.1,4.9-11,11-11
			s11,4.9,11,11c0,4.8-3,12-7,15.3c-1.3,1.1-2.7,1.7-4,1.7s-2.8-0.6-4-1.7C14,25,11,17.8,11,13z M17.4,30.4c1.4,1,3,1.6,4.6,1.6
			c1.6,0,3.2-0.6,4.6-1.6c8.3,1.2,14.6,5.9,15.3,15.7H2.1C2.8,36.2,9.1,31.6,17.4,30.4z"/>
	</g>
</g>
</svg>
